<svg xmlns="http://www.w3.org/2000/svg" xmlns:xlink="http://www.w3.org/1999/xlink" viewBox="0,0,256,256" width="50px" height="50px" fill-rule="nonzero"><g fill="#e7e1e1" fill-rule="nonzero" stroke="none" stroke-width="1" stroke-linecap="butt" stroke-linejoin="miter" stroke-miterlimit="10" stroke-dasharray="" stroke-dashoffset="0" font-family="none" font-weight="none" font-size="none" text-anchor="none" style="mix-blend-mode: normal"><g transform="scale(5.12,5.12)"><path d="M11.98438,4c-0.25977,0.00414 -0.50774,0.10921 -0.69141,0.29297l-8,8c-0.18754,0.18751 -0.29292,0.44183 -0.29297,0.70703v23c0.00005,0.2652 0.10543,0.51952 0.29297,0.70703l10,10c0.28603,0.28583 0.71604,0.37129 1.08963,0.21656c0.37359,-0.15474 0.61724,-0.51922 0.6174,-0.92359v-20.58594l9.29297,9.29297c0.39053,0.39037 1.02353,0.39037 1.41406,0l9.29297,-9.29297v20.58594c0.00016,0.40437 0.24381,0.76885 0.6174,0.92359c0.37359,0.15474 0.8036,0.06927 1.08963,-0.21656l10,-10c0.18754,-0.18751 0.29292,-0.44183 0.29297,-0.70703v-23c-0.00005,-0.2652 -0.10543,-0.51952 -0.29297,-0.70703l-8,-8c-0.39053,-0.39037 -1.02353,-0.39037 -1.41406,0l-12.29297,12.29297l-12.29297,-12.29297c-0.19132,-0.19141 -0.45205,-0.29711 -0.72266,-0.29297zM12,6.41406l12,12v13.17188l-18.58594,-18.58594zM38,6.41406l6.58594,6.58594l-18.58594,18.58594v-13.17188zM5,15.41406l8,8v20.17188l-8,-8zM45,15.41406v20.17188l-8,8v-20.17188z"></path></g></g></svg>